<mxfile host="app.diagrams.net" agent="Mozilla/5.0 (Windows NT 10.0; Win64; x64; rv:132.0) Gecko/20100101 Firefox/132.0" version="24.8.4">
  <diagram name="Page-1" id="joKAKt5czNegYGcOiWws">
    <mxGraphModel dx="794" dy="422" grid="1" gridSize="10" guides="1" tooltips="1" connect="1" arrows="1" fold="1" page="1" pageScale="1" pageWidth="850" pageHeight="1100" math="0" shadow="0">
      <root>
        <mxCell id="0" />
        <mxCell id="1" parent="0" />
        <mxCell id="Dks7fHRKahLXt5_C3i3N-13" value="" style="edgeStyle=orthogonalEdgeStyle;rounded=0;orthogonalLoop=1;jettySize=auto;html=1;" parent="1" source="Dks7fHRKahLXt5_C3i3N-6" target="Dks7fHRKahLXt5_C3i3N-8" edge="1">
          <mxGeometry relative="1" as="geometry" />
        </mxCell>
        <mxCell id="Dks7fHRKahLXt5_C3i3N-6" value="&lt;font size=&quot;1&quot;&gt;&lt;b style=&quot;font-size: 18px;&quot;&gt;ResNet50&lt;/b&gt;&lt;/font&gt;" style="rounded=1;whiteSpace=wrap;html=1;absoluteArcSize=1;arcSize=14;strokeWidth=2;" parent="1" vertex="1">
          <mxGeometry x="120" y="240" width="100" height="100" as="geometry" />
        </mxCell>
        <mxCell id="Dks7fHRKahLXt5_C3i3N-14" value="" style="edgeStyle=orthogonalEdgeStyle;rounded=0;orthogonalLoop=1;jettySize=auto;html=1;" parent="1" source="Dks7fHRKahLXt5_C3i3N-7" target="Dks7fHRKahLXt5_C3i3N-10" edge="1">
          <mxGeometry relative="1" as="geometry" />
        </mxCell>
        <mxCell id="Dks7fHRKahLXt5_C3i3N-7" value="&lt;font style=&quot;font-size: 18px;&quot;&gt;&lt;b&gt;&lt;font style=&quot;font-size: 18px;&quot;&gt;BERT&lt;/font&gt;&lt;/b&gt;&lt;/font&gt;" style="rounded=1;whiteSpace=wrap;html=1;absoluteArcSize=1;arcSize=14;strokeWidth=2;" parent="1" vertex="1">
          <mxGeometry x="570" y="240" width="100" height="100" as="geometry" />
        </mxCell>
        <mxCell id="Dks7fHRKahLXt5_C3i3N-8" value="&lt;ol style=&quot;font-size: 16px;&quot;&gt;&lt;li&gt;&lt;b&gt;Linear Layer (number of features, 512)&lt;br&gt;&lt;/b&gt;&lt;/li&gt;&lt;li&gt;&lt;b&gt;Batch Normalization&lt;/b&gt;&lt;/li&gt;&lt;li&gt;&lt;b&gt;ReLu&lt;br&gt;&lt;/b&gt;&lt;/li&gt;&lt;/ol&gt;" style="rounded=1;whiteSpace=wrap;html=1;" parent="1" vertex="1">
          <mxGeometry x="45" y="400" width="250" height="80" as="geometry" />
        </mxCell>
        <mxCell id="Dks7fHRKahLXt5_C3i3N-18" style="edgeStyle=orthogonalEdgeStyle;rounded=0;orthogonalLoop=1;jettySize=auto;html=1;exitX=0.5;exitY=1;exitDx=0;exitDy=0;" parent="1" source="Dks7fHRKahLXt5_C3i3N-10" edge="1">
          <mxGeometry relative="1" as="geometry">
            <mxPoint x="410" y="520" as="targetPoint" />
          </mxGeometry>
        </mxCell>
        <mxCell id="Dks7fHRKahLXt5_C3i3N-10" value="&lt;ol style=&quot;font-size: 16px;&quot;&gt;&lt;li&gt;&lt;b&gt;Linear Layer (number of features, 512)&lt;br&gt;&lt;/b&gt;&lt;/li&gt;&lt;li&gt;&lt;b&gt;Batch Normalization&lt;/b&gt;&lt;/li&gt;&lt;li&gt;&lt;b&gt;ReLu&lt;br&gt;&lt;/b&gt;&lt;/li&gt;&lt;/ol&gt;" style="rounded=1;whiteSpace=wrap;html=1;" parent="1" vertex="1">
          <mxGeometry x="495" y="400" width="250" height="80" as="geometry" />
        </mxCell>
        <mxCell id="Dks7fHRKahLXt5_C3i3N-19" style="edgeStyle=orthogonalEdgeStyle;rounded=0;orthogonalLoop=1;jettySize=auto;html=1;exitX=0.5;exitY=1;exitDx=0;exitDy=0;exitPerimeter=0;entryX=0.5;entryY=0;entryDx=0;entryDy=0;" parent="1" source="Dks7fHRKahLXt5_C3i3N-11" target="Dks7fHRKahLXt5_C3i3N-12" edge="1">
          <mxGeometry relative="1" as="geometry" />
        </mxCell>
        <mxCell id="Dks7fHRKahLXt5_C3i3N-11" value="&lt;b&gt;&lt;font style=&quot;font-size: 16px;&quot;&gt;Concatenate Features&lt;/font&gt;&lt;/b&gt;" style="strokeWidth=2;html=1;shape=mxgraph.flowchart.merge_or_storage;whiteSpace=wrap;verticalAlign=top;" parent="1" vertex="1">
          <mxGeometry x="337.5" y="520" width="140" height="70" as="geometry" />
        </mxCell>
        <mxCell id="Dks7fHRKahLXt5_C3i3N-12" value="&lt;ol style=&quot;font-size: 16px;&quot;&gt;&lt;li&gt;&lt;b&gt;Linear Layer (1024, 4)&lt;br&gt;&lt;/b&gt;&lt;/li&gt;&lt;li&gt;&lt;b&gt;log_softmax&lt;br&gt;&lt;/b&gt;&lt;/li&gt;&lt;/ol&gt;" style="rounded=1;whiteSpace=wrap;html=1;" parent="1" vertex="1">
          <mxGeometry x="326.5" y="630" width="162" height="60" as="geometry" />
        </mxCell>
        <mxCell id="Dks7fHRKahLXt5_C3i3N-15" value="&lt;b&gt;IMAGE FEATURES&lt;/b&gt;" style="text;html=1;align=center;verticalAlign=middle;whiteSpace=wrap;rounded=0;" parent="1" vertex="1">
          <mxGeometry x="60" y="360" width="60" height="30" as="geometry" />
        </mxCell>
        <mxCell id="Dks7fHRKahLXt5_C3i3N-16" value="&lt;b&gt;TEXT FEATURES&lt;/b&gt;" style="text;html=1;align=center;verticalAlign=middle;whiteSpace=wrap;rounded=0;" parent="1" vertex="1">
          <mxGeometry x="510" y="360" width="60" height="30" as="geometry" />
        </mxCell>
        <mxCell id="Dks7fHRKahLXt5_C3i3N-17" style="edgeStyle=orthogonalEdgeStyle;rounded=0;orthogonalLoop=1;jettySize=auto;html=1;exitX=0.5;exitY=1;exitDx=0;exitDy=0;entryX=0.5;entryY=0;entryDx=0;entryDy=0;entryPerimeter=0;" parent="1" source="Dks7fHRKahLXt5_C3i3N-8" target="Dks7fHRKahLXt5_C3i3N-11" edge="1">
          <mxGeometry relative="1" as="geometry" />
        </mxCell>
      </root>
    </mxGraphModel>
  </diagram>
</mxfile>
